<svg xmlns="http://www.w3.org/2000/svg" viewBox="0 0 1024 1024">
  <defs>
    <linearGradient id="bg" x1="0" y1="0" x2="0" y2="1">
      <stop offset="0" stop-color="#2A3358"/>
      <stop offset="1" stop-color="#161C36"/>
    </linearGradient>
    <linearGradient id="ink" x1="0" y1="1" x2="1" y2="0">
      <stop offset="0" stop-color="#2740A8"/>
      <stop offset="1" stop-color="#131E52"/>
    </linearGradient>
    <linearGradient id="paper" x1="0" y1="0" x2="0" y2="1">
      <stop offset="0" stop-color="#FAF4E7"/>
      <stop offset="1" stop-color="#F0E7D2"/>
    </linearGradient>
  </defs>

  <rect x="0" y="0" width="1024" height="1024" rx="226" fill="url(#bg)"/>

  <!-- pad, slightly tilted -->
  <g transform="rotate(-5 512 512)">
    <rect x="238" y="186" width="548" height="652" rx="40"
          fill="#0C1024" opacity="0.35" transform="translate(14 22)"/>
    <rect x="238" y="186" width="548" height="652" rx="40" fill="url(#paper)"/>
    <!-- spiral-pad hint: three binding dots along the top edge -->
    <circle cx="372" cy="232" r="13" fill="#161C36" opacity="0.22"/>
    <circle cx="512" cy="232" r="13" fill="#161C36" opacity="0.22"/>
    <circle cx="652" cy="232" r="13" fill="#161C36" opacity="0.22"/>

    <!-- pressure stroke + lifted-pen dot -->
    <g fill="url(#ink)">
      <path d="M 336.3 747.8 L 340.6 744.4 L 344.8 741.0 L 348.9 737.5 L 353.0 734.0 L 357.1 730.5 L 361.1 726.9 L 365.0 723.2 L 368.9 719.6 L 372.8 715.9 L 376.6 712.1 L 380.3 708.3 L 384.0 704.4 L 387.6 700.6 L 391.2 696.6 L 394.7 692.7 L 398.2 688.7 L 401.6 684.6 L 405.0 680.6 L 408.3 676.5 L 411.5 672.4 L 414.7 668.2 L 417.8 664.0 L 420.9 659.8 L 424.0 655.6 L 426.9 651.4 L 429.8 647.1 L 432.7 642.8 L 435.5 638.6 L 438.3 634.3 L 441.0 630.0 L 443.6 625.7 L 446.3 621.3 L 448.8 617.0 L 451.3 612.7 L 453.8 608.4 L 456.2 604.1 L 458.6 599.8 L 460.9 595.6 L 463.2 591.3 L 465.4 587.0 L 467.7 582.8 L 469.8 578.6 L 471.9 574.4 L 474.0 570.2 L 476.1 566.1 L 478.1 561.9 L 480.1 557.8 L 482.0 553.7 L 483.9 549.7 L 485.8 545.7 L 487.7 541.7 L 489.5 537.7 L 491.3 533.8 L 493.1 529.9 L 494.8 526.0 L 496.6 522.2 L 498.3 518.4 L 500.0 514.7 L 501.7 511.0 L 503.3 507.3 L 505.0 503.7 L 506.6 500.1 L 508.2 496.5 L 509.8 492.9 L 511.4 489.4 L 513.0 486.0 L 514.6 482.5 L 516.2 479.1 L 517.8 475.8 L 519.4 472.4 L 521.0 469.1 L 522.7 465.8 L 524.3 462.6 L 525.9 459.3 L 527.6 456.1 L 529.3 452.9 L 531.0 449.7 L 532.8 446.6 L 534.6 443.4 L 536.4 440.3 L 538.3 437.2 L 540.2 434.0 L 542.2 430.9 L 544.2 427.8 L 546.3 424.7 L 548.5 421.6 L 550.8 418.5 L 553.1 415.4 L 555.6 412.3 L 558.1 409.3 L 560.7 406.2 L 563.4 403.1 L 566.3 400.0 L 569.3 397.0 L 572.4 393.9 L 575.6 390.9 L 578.9 387.9 L 582.4 384.9 L 586.1 381.9 L 589.8 378.9 L 593.8 376.0 L 597.9 373.1 L 601.6 369.0 L 605.7 365.1 L 609.9 361.2 L 614.4 357.5 L 619.1 354.0 L 624.1 350.6 L 629.3 347.4 L 634.7 344.3 L 640.3 341.3 L 646.2 338.6 L 652.2 336.0 L 658.5 333.6 L 664.9 331.4 L 671.6 329.3 L 678.4 327.4 L 685.5 325.7 L 692.8 324.8 L 700.2 324.0 L 699.8 320.0 L 692.3 320.8 L 684.9 321.6 L 677.7 321.8 L 670.5 322.0 L 663.4 322.2 L 656.4 322.4 L 649.5 322.6 L 642.7 322.7 L 635.9 322.9 L 629.3 323.0 L 622.6 323.1 L 616.1 323.2 L 609.5 323.3 L 603.0 323.4 L 596.5 323.5 L 590.0 323.6 L 583.6 323.7 L 577.1 323.8 L 571.2 325.2 L 565.3 326.8 L 559.6 328.4 L 553.9 330.1 L 548.3 332.0 L 542.8 333.9 L 537.4 336.0 L 532.0 338.2 L 526.7 340.5 L 521.5 342.9 L 516.4 345.4 L 511.4 348.0 L 506.5 350.7 L 501.7 353.5 L 496.9 356.5 L 492.3 359.5 L 487.7 362.6 L 483.2 365.9 L 478.9 369.2 L 474.6 372.6 L 470.5 376.1 L 466.4 379.7 L 462.5 383.4 L 458.6 387.1 L 454.9 391.0 L 451.2 394.9 L 447.7 398.8 L 444.3 402.8 L 441.0 406.9 L 437.7 411.1 L 434.6 415.2 L 431.6 419.5 L 428.7 423.8 L 425.9 428.1 L 423.1 432.4 L 420.5 436.8 L 418.0 441.2 L 415.6 445.7 L 413.2 450.2 L 411.0 454.7 L 408.8 459.2 L 406.7 463.7 L 404.7 468.2 L 402.8 472.8 L 400.9 477.4 L 399.1 482.0 L 397.4 486.6 L 395.8 491.2 L 394.2 495.8 L 392.7 500.4 L 391.2 505.0 L 389.8 509.6 L 388.5 514.2 L 387.2 518.8 L 386.0 523.4 L 384.8 528.0 L 383.6 532.6 L 382.5 537.2 L 381.4 541.8 L 380.4 546.4 L 379.4 551.0 L 378.4 555.6 L 377.4 560.2 L 376.5 564.8 L 375.6 569.4 L 374.7 573.9 L 373.8 578.5 L 373.0 583.1 L 372.1 587.6 L 371.2 592.2 L 370.4 596.7 L 369.5 601.3 L 368.6 605.8 L 367.8 610.4 L 366.9 614.9 L 366.0 619.5 L 365.0 624.0 L 364.1 628.5 L 363.1 633.1 L 362.1 637.6 L 361.0 642.1 L 360.0 646.6 L 358.8 651.2 L 357.7 655.7 L 356.4 660.2 L 355.2 664.7 L 353.8 669.3 L 352.4 673.8 L 350.9 678.3 L 349.4 682.8 L 347.8 687.3 L 346.1 691.8 L 344.3 696.3 L 342.4 700.8 L 340.5 705.3 L 338.4 709.8 L 336.2 714.2 L 334.0 718.7 L 331.6 723.1 L 329.1 727.5 L 326.4 731.8 L 323.7 736.2 Z"/>
      <circle cx="330.0" cy="742.0" r="8.6"/>
      <circle cx="742" cy="278" r="26"/>
    </g>
  </g>
</svg>
